HIERARCHY
ROOT Hips
{
	OFFSET 15.585500 22.159004 44.358299
	CHANNELS 6 Xposition Yposition Zposition Zrotation Xrotation Yrotation
	JOINT Chest
	{
		OFFSET -0.128500 0.160400 6.566002
		CHANNELS 6 Xposition Yposition Zposition Zrotation Xrotation Yrotation
		JOINT Chest2
		{
			OFFSET 0.000000 0.000000 3.554802
			CHANNELS 6 Xposition Yposition Zposition Zrotation Xrotation Yrotation
			JOINT Neck
			{
				OFFSET 0.000000 0.000000 8.267998
				CHANNELS 6 Xposition Yposition Zposition Zrotation Xrotation Yrotation
				JOINT Head
				{
					OFFSET 0.000000 0.000002 2.173897
					CHANNELS 6 Xposition Yposition Zposition Zrotation Xrotation Yrotation
					End Site
					{
						OFFSET 0.000000 0.000000 7.718697
					}
				}
			}
			JOINT LeftCollar
			{
				OFFSET 2.057500 0.117599 5.946301
				CHANNELS 6 Xposition Yposition Zposition Zrotation Xrotation Yrotation
				JOINT LeftShoulder
				{
					OFFSET 4.957699 0.000000 0.000000
					CHANNELS 6 Xposition Yposition Zposition Zrotation Xrotation Yrotation
					JOINT LeftElbow
					{
						OFFSET 0.000000 0.000000 -8.465500
						CHANNELS 6 Xposition Yposition Zposition Zrotation Xrotation Yrotation
						JOINT LeftWrist
						{
							OFFSET 0.000000 -0.000002 -14.594898
							CHANNELS 6 Xposition Yposition Zposition Zrotation Xrotation Yrotation
							End Site
							{
								OFFSET 0.000000 0.000000 -2.173901
							}
						}
					}
				}
			}
			JOINT RightCollar
			{
				OFFSET -3.048500 -0.728800 6.604099
				CHANNELS 6 Xposition Yposition Zposition Zrotation Xrotation Yrotation
				JOINT RightShoulder
				{
					OFFSET -3.710299 0.000000 0.000000
					CHANNELS 6 Xposition Yposition Zposition Zrotation Xrotation Yrotation
					JOINT RightElbow
					{
						OFFSET 0.000000 0.000000 -10.450901
						CHANNELS 6 Xposition Yposition Zposition Zrotation Xrotation Yrotation
						JOINT RightWrist
						{
							OFFSET 0.000000 0.000000 -12.539200
							CHANNELS 6 Xposition Yposition Zposition Zrotation Xrotation Yrotation
							End Site
							{
								OFFSET 0.000000 -0.000002 -2.173901
							}
						}
					}
				}
			}
		}
	}
	JOINT LeftHip
	{
		OFFSET 2.442599 -0.601400 -2.767502
		CHANNELS 6 Xposition Yposition Zposition Zrotation Xrotation Yrotation
		JOINT LeftKnee
		{
			OFFSET 0.000000 -0.000002 -17.033703
			CHANNELS 6 Xposition Yposition Zposition Zrotation Xrotation Yrotation
			JOINT LeftAnkle
			{
				OFFSET 0.000000 -0.000002 -19.318800
				CHANNELS 6 Xposition Yposition Zposition Zrotation Xrotation Yrotation
				End Site
				{
					OFFSET 0.000000 -8.281900 0.000000
				}
			}
		}
	}
	JOINT RightHip
	{
		OFFSET -3.126200 -0.601400 -2.283501
		CHANNELS 6 Xposition Yposition Zposition Zrotation Xrotation Yrotation
		JOINT RightKnee
		{
			OFFSET 0.000000 -0.000002 -16.919401
			CHANNELS 6 Xposition Yposition Zposition Zrotation Xrotation Yrotation
			JOINT RightAnkle
			{
				OFFSET 0.000000 -0.000002 -18.035900
				CHANNELS 6 Xposition Yposition Zposition Zrotation Xrotation Yrotation
				End Site
				{
					OFFSET 0.000000 -9.230099 0.000000
				}
			}
		}
	}
}
MOTION
Frames: 5
Frame Time: 0.041667
21.299402 37.769707 8.512199 9.924600 12.795250 -21.179628 -0.128500 0.160397 6.566009 -10.226415 12.192661 2.677025 -0.000001 0.000004 3.554801 -9.605012 -11.193527 -3.249705 -0.000002 -0.000001 8.267999 57.909397 5.659560 -10.911093 -0.000004 0.000006 2.173898 4.685516 5.823500 10.915481 2.057508 0.117599 5.946306 -24.513224 2.866601 17.469800 4.957694 0.000004 -0.000002 -6.528673 3.856558 -101.113294 0.000003 0.000000 -8.465508 -119.122884 -117.225758 -103.082588 0.000001 0.000000 -14.594900 -642.052371 -6.991382 -347.570732 -3.048500 -0.728802 6.604100 20.700679 1.599715 -1.986951 -3.710299 -0.000002 -0.000003 15.796394 1.529389 144.760108 -0.000000 0.000010 -10.450903 160.007167 -68.205142 160.988624 0.000007 0.000000 -12.539195 400.091472 197.464321 -198.265939 2.442593 -0.601403 -2.767498 131.939966 -7.306257 94.734717 -0.000000 -0.000003 -17.033705 -171.670193 46.880100 185.371730 -0.000001 0.000000 -19.318804 -159.280011 115.662055 407.536952 -3.126198 -0.601404 -2.283495 -139.505220 -19.843373 -125.122290 -0.000005 -0.000004 -16.919392 396.089145 -60.909885 -155.194575 -0.000002 -0.000005 -18.035896 205.497060 49.637228 -188.731323
21.291000 37.758003 8.516804 9.935100 12.851599 -21.219342 -0.128498 0.160396 6.566004 -10.229087 12.264857 2.630031 0.000001 -0.000002 3.554801 -9.587058 -11.192754 -3.245243 -0.000000 0.000004 8.267996 57.885648 5.691510 -10.983014 0.000004 0.000001 2.173897 4.668034 5.818642 10.899473 2.057506 0.117602 5.946302 -24.511350 2.870911 17.531718 4.957697 0.000002 0.000003 -6.587585 3.947706 -101.216123 0.000000 0.000012 -8.465509 -118.499506 -117.137116 -102.417122 -0.000005 0.000001 -14.594903 -642.138486 -7.026537 -347.582480 -3.048498 -0.728796 6.604100 20.699513 1.662466 -2.065629 -3.710296 0.000003 0.000001 15.743258 1.427727 144.869296 -0.000002 0.000010 -10.450905 159.990911 -67.983523 160.935991 0.000007 0.000001 -12.539195 400.062020 197.520588 -198.404742 2.442599 -0.601402 -2.767506 131.998501 -7.177846 94.770473 0.000001 -0.000003 -17.033707 -171.754956 46.839904 185.353507 -0.000000 -0.000001 -19.318804 -159.364009 115.641946 407.632465 -3.126196 -0.601407 -2.283502 -139.520793 -19.868706 -125.137685 -0.000003 -0.000005 -16.919397 389.585138 -62.426105 -160.184930 -0.000001 -0.000000 -18.035896 201.479201 50.101773 -187.820817
21.283398 37.746700 8.521297 9.940827 12.909473 -21.253020 -0.128499 0.160400 6.566001 -10.224864 12.334342 2.578007 0.000000 0.000005 3.554805 -9.560358 -11.186170 -3.237874 -0.000004 0.000001 8.268004 57.849954 5.731415 -11.043413 0.000001 0.000006 2.173889 4.652949 5.806872 10.881039 2.057507 0.117599 5.946305 -24.519887 2.876057 17.587143 4.957692 0.000002 0.000004 -6.643494 4.027473 -101.302135 -0.000002 0.000002 -8.465504 -117.909979 -117.041466 -101.790849 -0.000007 0.000000 -14.594895 -642.214274 -7.052082 -347.585813 -3.048504 -0.728798 6.604104 20.653780 1.688854 -2.130700 -3.710292 -0.000000 -0.000004 15.716118 1.370687 144.961831 0.000002 0.000009 -10.450907 159.889879 -67.788507 160.603005 0.000005 0.000000 -12.539194 399.963338 197.716723 -198.696828 2.442593 -0.601405 -2.767500 132.061626 -7.039299 94.808708 -0.000000 -0.000002 -17.033709 -171.847587 46.796594 185.340229 -0.000003 0.000003 -19.318806 -159.416957 115.624912 407.710138 -3.126197 -0.601401 -2.283499 -139.533702 -19.895132 -125.155908 -0.000005 -0.000005 -16.919394 389.077847 -62.522206 -160.535919 0.000001 -0.000003 -18.035896 201.230432 50.110991 -187.692547
21.276501 37.735802 8.525597 9.942052 12.970160 -21.280812 -0.128502 0.160405 6.566003 -10.212851 12.399543 2.518166 -0.000001 0.000005 3.554805 -9.522325 -11.173940 -3.226922 -0.000001 0.000000 8.268002 57.798591 5.782389 -11.088475 0.000004 0.000005 2.173896 4.640710 5.786857 10.859267 2.057506 0.117603 5.946302 -24.536509 2.879907 17.637500 4.957697 0.000004 0.000003 -6.698881 4.101579 -101.369829 0.000004 0.000004 -8.465500 -117.354534 -116.933522 -101.208063 0.000001 -0.000000 -14.594895 -642.275964 -7.065506 -347.579775 -3.048499 -0.728800 6.604096 20.560881 1.676579 -2.176272 -3.710299 0.000002 -0.000004 15.714279 1.358714 145.034463 0.000003 0.000008 -10.450905 159.877380 -67.589803 160.566245 0.000006 0.000002 -12.539194 399.958830 197.822441 -198.775471 2.442594 -0.601397 -2.767506 132.129108 -6.891817 94.850448 -0.000002 -0.000005 -17.033707 -171.949029 46.753311 185.326829 -0.000001 -0.000003 -19.318796 -159.465834 115.608820 407.783549 -3.126203 -0.601393 -2.283502 -139.544030 -19.920397 -125.178229 -0.000001 -0.000000 -16.919394 388.585936 -62.611955 -160.875503 -0.000001 -0.000002 -18.035898 200.994968 50.118986 -187.576488
21.270498 37.725403 8.529598 9.939516 13.034993 -21.303012 -0.128501 0.160394 6.566011 -10.192416 12.458993 2.447126 0.000000 -0.000001 3.554805 -9.470697 -11.156313 -3.211788 -0.000001 0.000009 8.268003 57.728137 5.847517 -11.114105 -0.000003 0.000005 2.173898 4.631592 5.757264 10.832555 2.057505 0.117604 5.946308 -24.558066 2.879489 17.684355 4.957698 0.000003 0.000001 -6.757046 4.177166 -101.417784 0.000000 0.000006 -8.465507 -116.831602 -116.807942 -100.671572 0.000003 -0.000002 -14.594900 -642.288149 -7.101074 -347.437025 -3.048501 -0.728793 6.604103 20.422424 1.625870 -2.194727 -3.710296 0.000001 -0.000007 15.733938 1.387382 145.083777 0.000002 0.000010 -10.450905 159.871287 -67.404480 160.539143 0.000003 -0.000000 -12.539192 399.967682 197.949824 -198.830154 2.442591 -0.601402 -2.767498 132.200647 -6.735780 94.896756 -0.000002 -0.000006 -17.033710 -172.058776 46.710178 185.314111 -0.000005 0.000002 -19.318804 -159.510885 115.593753 407.852752 -3.126197 -0.601405 -2.283497 -139.552076 -19.942815 -125.205318 -0.000004 -0.000003 -16.919395 388.110582 -62.695058 -161.202641 -0.000001 -0.000005 -18.035898 200.772536 50.125942 -187.471972
